<?xml version="1.0" standalone="no"?>
<!DOCTYPE svg PUBLIC "-//W3C//DTD SVG 20010904//EN"
        "http://www.w3.org/TR/2001/REC-SVG-20010904/DTD/svg10.dtd">
<svg version="1.0" xmlns="http://www.w3.org/2000/svg"
     width="351.000000pt" height="351.000000pt" viewBox="0 0 351.000000 351.000000"
     preserveAspectRatio="xMidYMid meet">

    <g transform="translate(0.000000,351.000000) scale(0.100000,-0.100000)"
       fill="#21D375" stroke="none">
        <path d="M1567 2755 c-434 -73 -786 -381 -889 -780 -20 -78 -23 -114 -23 -270
0 -157 3 -191 23 -265 80 -294 288 -548 562 -685 179 -90 316 -120 525 -118
114 1 158 6 237 26 139 36 255 87 356 153 419 279 589 806 412 1278 l-22 58
-76 -75 -75 -76 21 -88 c29 -119 30 -284 2 -402 -77 -321 -306 -555 -637 -653
-66 -19 -101 -22 -233 -23 -131 0 -168 4 -238 23 -364 99 -614 384 -663 756
-34 258 62 520 260 709 171 163 384 247 630 247 186 0 356 -50 507 -149 l30
-21 68 70 68 69 -49 36 c-26 19 -88 55 -138 80 -205 101 -440 136 -658 100z"/>
        <path d="M2872 2460 c0 -19 2 -27 5 -17 2 9 2 25 0 35 -3 9 -5 1 -5 -18z"/>
        <path d="M2855 2396 c-6 -14 -78 -94 -161 -178 -179 -182 -180 -183 -190 -167
-5 8 -3 9 6 4 9 -5 11 -4 6 4 -11 18 -23 4 -23 -26 0 -33 -27 -53 -64 -49 -24
3 -26 1 -16 -15 6 -10 15 -15 19 -13 5 3 5 10 2 16 -4 7 -2 8 5 4 9 -6 9 -11
0 -22 -9 -11 -15 -11 -25 -3 -10 8 -14 8 -14 0 0 -6 -17 -11 -41 -11 -35 0
-40 -3 -37 -21 4 -24 -51 -63 -59 -41 -6 14 -33 16 -33 2 0 -5 -7 -10 -15 -10
-8 0 -20 -9 -27 -20 -10 -15 -24 -20 -60 -20 -27 0 -48 -4 -48 -10 0 -5 -18
-10 -40 -10 -22 0 -40 5 -40 10 0 18 -22 10 -42 -15 -11 -14 -26 -25 -34 -25
-8 0 -33 -9 -54 -20 -37 -19 -40 -19 -37 -3 1 10 6 24 10 31 5 6 4 12 -2 12
-15 0 -6 35 10 35 8 0 20 4 27 8 6 5 16 6 21 2 15 -8 25 15 12 28 -14 14 -15
30 -1 22 6 -4 9 -1 8 7 -2 7 3 12 10 10 8 -1 11 2 7 8 -3 5 -1 10 4 10 6 0 11
6 11 12 0 7 -58 -45 -129 -116 -72 -72 -127 -134 -124 -139 3 -6 2 -7 -4 -4
-13 8 -116 -97 -106 -108 5 -4 2 -4 -6 0 -11 6 -13 4 -7 -11 5 -14 0 -12 -22
9 -17 16 -33 29 -36 28 -3 -1 -5 1 -3 3 5 9 -47 55 -56 49 -6 -3 -7 -2 -4 4 7
11 -184 203 -202 203 -7 0 -9 -4 -6 -10 3 -5 12 -10 19 -10 13 0 68 -63 66
-76 -2 -9 34 -33 42 -28 4 3 5 -4 3 -15 -2 -12 1 -18 8 -16 7 3 22 -3 35 -13
21 -17 22 -18 3 -18 -11 0 -19 3 -18 6 1 3 -3 5 -8 5 -6 0 -9 -4 -7 -9 2 -5
-4 -4 -13 4 -8 7 -14 20 -13 29 2 12 -7 17 -40 19 -34 3 -42 0 -37 -10 6 -10
5 -11 -6 0 -8 7 -40 12 -80 12 -45 0 -69 -4 -72 -12 -3 -10 -7 -10 -20 1 -10
8 -24 10 -34 6 -10 -5 -21 -7 -26 -7 -4 1 -7 -5 -7 -13 0 -8 -4 -15 -10 -15
-5 0 -10 -8 -10 -17 0 -10 -5 -25 -10 -33 -7 -11 -8 -6 -4 16 4 19 1 34 -5 38
-17 11 -13 26 5 19 14 -5 15 -3 4 18 -13 23 -13 23 -21 4 -18 -46 0 -163 22
-149 5 3 6 -2 3 -11 -8 -21 405 -429 461 -456 81 -38 171 -14 241 64 20 23
145 153 276 289 149 154 237 252 232 259 -4 7 -3 9 3 6 13 -8 36 17 25 28 -4
5 -2 5 4 2 6 -3 58 42 115 101 57 59 186 191 286 294 186 191 218 229 211 249
-2 6 -8 -1 -13 -15z m-475 -496 c-8 -5 -19 -10 -25 -10 -5 0 -3 5 5 10 8 5 20
10 25 10 6 0 3 -5 -5 -10z m-29 -24 c14 8 11 -2 -4 -14 -10 -8 -13 -6 -14 11
0 12 1 16 4 9 3 -6 9 -10 14 -6z m-443 -16 c3 -8 0 -10 -7 -6 -7 4 -19 2 -28
-6 -15 -12 -15 -11 -2 10 15 23 30 25 37 2z m347 -39 c3 -5 2 -12 -3 -15 -5
-3 -9 1 -9 9 0 17 3 19 12 6z m-429 -46 c1 -8 -3 -18 -8 -22 -6 -3 -8 -1 -4 5
3 6 2 13 -4 17 -6 4 -8 11 -4 16 7 12 17 4 20 -16z m-47 -29 c-18 -8 -25 -18
-24 -34 1 -13 -1 -25 -5 -27 -13 -8 -5 52 8 68 8 9 20 13 30 10 13 -6 12 -9
-9 -17z"/>
        <path d="M1996 2002 c-3 -5 1 -9 9 -9 8 0 12 4 9 9 -3 4 -7 8 -9 8 -2 0 -6 -4
-9 -8z"/>
        <path d="M1966 1932 c-3 -5 1 -9 9 -9 8 0 12 4 9 9 -3 4 -7 8 -9 8 -2 0 -6 -4
-9 -8z"/>
        <path d="M1125 1860 c-3 -5 -11 -7 -18 -4 -7 2 -21 -2 -32 -10 -11 -9 -15 -16
-8 -16 6 0 15 5 18 10 9 15 27 12 19 -2 -4 -7 1 -5 12 4 11 9 42 18 69 21 l50
3 -52 2 c-28 1 -54 -2 -58 -8z"/>
        <path d="M1016 1789 c-11 -17 -12 -25 -3 -40 7 -11 15 -19 20 -19 4 0 5 6 0
13 -14 22 -12 40 5 54 10 7 12 13 5 13 -6 0 -19 -10 -27 -21z"/>
        <path d="M1292 1785 c4 -5 4 -13 -2 -19 -6 -8 -3 -12 10 -13 29 -2 34 14 8 28
-13 6 -20 8 -16 4z"/>
    </g>
</svg>
